<svg xmlns:dc="http://purl.org/dc/elements/1.1/" xmlns:cc="http://creativecommons.org/ns#" xmlns:rdf="http://www.w3.org/1999/02/22-rdf-syntax-ns#" xmlns:svg="http://www.w3.org/2000/svg" xmlns="http://www.w3.org/2000/svg" xmlns:sodipodi="http://sodipodi.sourceforge.net/DTD/sodipodi-0.dtd" xmlns:inkscape="http://www.inkscape.org/namespaces/inkscape" version="1.0" width="396.3205" height="295.04398" viewBox="0 0 3963.205 2950.4398" preserveAspectRatio="xMidYMid meet" id="svg85" sodipodi:docname="c_cubes_logo_design_symbol_icon_by_alex_tass.svg" inkscape:version="0.92.2 2405546, 2018-03-11">
  <metadata id="metadata91">
    <rdf:RDF>
      <cc:Work rdf:about="">
        <dc:format>image/svg+xml</dc:format>
        <dc:type rdf:resource="http://purl.org/dc/dcmitype/StillImage"/>
        <dc:title/>
        <cc:license rdf:resource="http://creativecommons.org/licenses/by-sa/4.0/"/>
        <dc:source>http://alextass.com/gallery/monograms-and-letter-marks</dc:source>
      </cc:Work>
      <cc:License rdf:about="http://creativecommons.org/licenses/by-sa/4.0/">
        <cc:permits rdf:resource="http://creativecommons.org/ns#Reproduction"/>
        <cc:permits rdf:resource="http://creativecommons.org/ns#Distribution"/>
        <cc:requires rdf:resource="http://creativecommons.org/ns#Notice"/>
        <cc:requires rdf:resource="http://creativecommons.org/ns#Attribution"/>
        <cc:permits rdf:resource="http://creativecommons.org/ns#DerivativeWorks"/>
        <cc:requires rdf:resource="http://creativecommons.org/ns#ShareAlike"/>
      </cc:License>
    </rdf:RDF>
  </metadata>
<path style="fill:#01ac21;fill-opacity:1;stroke-width:1.23143601" d="m 3150.3195,1170.601 c -135.5186,-78.2447 -263.1198,-151.9227 -283.5611,-163.7301 -21.2227,-12.25759 -36.7023,-21.92759 -36.0883,-22.54159 0.5938,-0.5913 128.1953,-74.46905 283.561,-164.16935 l 282.4844,-163.09195 0.3132,164.49223 c 0.1755,90.46982 0.1755,238.02436 5e-4,327.89646 l -0.3133,163.4061 z" id="path3857" inkscape:connector-curvature="0"/><path style="fill:#01ac21;fill-opacity:1;stroke-width:1.23143601" d="m 3643.1119,799.33084 c 135.5174,78.24381 263.1194,151.92237 283.5603,163.72837 21.2238,12.2582 36.7043,21.928 36.0887,22.5426 -0.5938,0.5916 -128.1953,74.46759 -283.5608,164.16879 l -282.4842,163.0922 -0.3133,-164.4922 c -0.1753,-90.4699 -0.1753,-238.024 4e-4,-327.8962 l 0.3125,-163.40639 z" id="path3857-6" inkscape:connector-curvature="0"/>
<path style="fill:#007039;fill-opacity:1;stroke-width:1.23143601" d="m 3150.3191,1826.3946 c -135.5173,-78.2446 -263.1196,-151.9214 -283.5598,-163.7278 -21.2244,-12.2588 -36.7028,-21.9282 -36.0901,-22.5422 0.5952,-0.5934 128.1962,-74.4697 283.5636,-164.1703 l 282.4831,-163.0915 0.3138,164.4907 c 0.1753,90.472 0.1753,238.0252 -8e-4,327.8979 l -0.3138,163.4051 z" id="path3857-7" inkscape:connector-curvature="0"/><path style="fill:#007039;fill-opacity:1;stroke-width:1.23143601" d="m 3077.0656,1126.5922 c 135.5202,78.2441 263.1215,151.9216 283.5621,163.7278 21.2246,12.259 36.7029,21.9269 36.0882,22.5428 -0.5907,0.5905 -128.1944,74.4684 -283.5607,164.1687 l -282.486,163.0931 -0.312,-164.4926 c -0.1753,-90.4707 -0.1753,-238.0232 -2e-4,-327.8983 l 0.3131,-163.40439 z" id="path3857-7-5" inkscape:connector-curvature="0"/>
<path style="fill:#00953b;fill-opacity:1;stroke-width:1.23143601" d="m 3643.1108,1455.1258 c 135.5188,78.2449 263.1213,151.922 283.5618,163.7277 21.2231,12.2594 36.7026,21.9278 36.0876,22.5426 -0.5911,0.5918 -128.1955,74.4692 -283.5609,164.1699 l -282.4842,163.0905 -0.3133,-164.4901 c -0.1754,-90.4707 -0.1754,-238.0244 -9e-4,-327.8982 l 0.315,-163.4054 z" id="path3857-7-5-3" inkscape:connector-curvature="0"/><path style="fill:#00953b;fill-opacity:1;stroke-width:1.23143601" d="m 3716.3633,1499.1337 c -135.5167,-78.2435 -263.119,-151.923 -283.5607,-163.7279 -21.2233,-12.2584 -36.7022,-21.9278 -36.0867,-22.543 0.5902,-0.5906 128.1948,-74.4693 283.5604,-164.1695 l 282.4846,-163.09149 0.3126,164.49199 c 0.1754,90.47 0.1754,238.0237 0,327.8977 l -0.3133,163.4046 z" id="path3857-7-5-3-5" inkscape:connector-curvature="0"/>
<path style="fill:#01ac21;fill-opacity:1;stroke-width:1.23143601" d="m 2584.275,1497.861 c -135.5173,-78.2445 -263.1197,-151.9221 -283.5613,-163.7283 -21.2238,-12.2591 -36.7028,-21.9273 -36.0884,-22.5431 0.5911,-0.5916 128.1946,-74.468 283.5613,-164.168 l 282.4835,-163.09229 0.3141,164.49109 c 0.1754,90.4699 0.1754,238.0243 0,327.8973 l -0.316,163.4069 z" id="path3857-62" inkscape:connector-curvature="0"/>
<path style="fill:#66cd01;fill-opacity:1;stroke-width:1.23143601" d="m 3077.0657,470.79625 c 135.5184,78.24525 263.1219,151.92299 283.5619,163.72878 21.2237,12.25843 36.703,21.92784 36.0879,22.54298 -0.5893,0.59312 -128.1954,74.46766 -283.5603,164.16781 l -282.4851,163.09349 -0.312,-164.49189 c -0.1753,-90.47156 -0.1753,-238.02426 -9e-4,-327.89733 l 0.3131,-163.40683 z" id="path3857-9" inkscape:connector-curvature="0"/>
<path style="fill:#57b301;fill-opacity:1;stroke-width:1.23143601" d="m 2511.0202,798.05645 c 135.5176,78.24497 263.1207,151.92226 283.5629,163.72926 21.2228,12.2593 36.702,21.928 36.087,22.5436 -0.5908,0.5906 -128.195,74.46769 -283.5607,164.16739 l -282.4841,163.0929 -0.3131,-164.4911 c -0.1753,-90.4702 -0.1753,-238.02441 -6e-4,-327.89778 l 0.3133,-163.40711 z" id="path3857-9-1" inkscape:connector-curvature="0"/>
<path style="fill:#fdd400;fill-opacity:1;stroke-width:1.23143601" d="m 2511.0213,142.26223 c 135.5173,78.24497 263.1208,151.92242 283.5608,163.72922 21.2245,12.25857 36.7035,21.92726 36.0882,22.54181 -0.591,0.59169 -128.195,74.4681 -283.5606,164.16941 l -282.4848,163.09094 -0.3124,-164.49093 c -0.1754,-90.47084 -0.1754,-238.02397 -9e-4,-327.89748 L 2264.6249,0 Z" id="path3857-9-1-2" inkscape:connector-curvature="0"/>
<path style="fill:#fdd400;fill-opacity:1;stroke-width:1.23143601" d="m 2018.2291,513.53222 c -135.5183,-78.24467 -263.12,-151.92255 -283.5608,-163.72792 -21.224,-12.25972 -36.7025,-21.92899 -36.088,-22.5434 0.5923,-0.59313 128.1949,-74.46883 283.5608,-164.16873 L 2264.6249,0 l 0.314,164.49184 c 0.1753,90.46946 0.1753,238.02361 4e-4,327.89653 l -0.3144,163.40524 z" id="path3857-9-1-2-7" inkscape:connector-curvature="0"/>
<path style="fill:#acc901;fill-opacity:1;stroke-width:1.23143601" d="M 2584.275,842.06566 C 2448.7568,763.82228 2321.1542,690.14325 2300.7137,678.3373 c -21.2235,-12.25827 -36.7039,-21.92725 -36.0888,-22.54369 0.5918,-0.59226 128.1946,-74.46723 283.5615,-164.16824 l 282.4839,-163.09211 0.3135,164.49181 c 0.1753,90.47054 0.1753,238.02469 -4e-4,327.89776 l -0.3133,163.40648 z" id="path3857-0" inkscape:connector-curvature="0"/>
<path style="fill:#f89101;fill-opacity:1;stroke-width:1.23143601" d="m 1452.1836,840.79315 c -135.5177,-78.24395 -263.1197,-151.92342 -283.5602,-163.7285 -21.2245,-12.259 -36.7041,-21.92798 -36.0875,-22.54239 0.5942,-0.59298 128.1939,-74.46882 283.5593,-164.16897 l 282.4851,-163.09239 0.3143,164.49064 c 0.1754,90.47228 0.1754,238.02571 0,327.89776 l -0.3134,163.40621 z" id="path3857-9-1-2-7-9" inkscape:connector-curvature="0"/>
<path style="fill:#fa7a01;fill-opacity:1;stroke-width:1.23143601" d="m 2018.2298,1169.3267 c -135.518,-78.2453 -263.1213,-151.9226 -283.5615,-163.7276 -21.2243,-12.25999 -36.7036,-21.92839 -36.0888,-22.54359 0.5928,-0.5939 128.195,-74.46864 283.562,-164.1682 l 282.4834,-163.0937 0.3144,164.49268 c 0.1753,90.46894 0.1753,238.02471 -1e-4,327.89651 l -0.3139,163.4068 z" id="path3857-9-1-2-7-9-3" inkscape:connector-curvature="0"/>
<path style="fill:#fa7a01;fill-opacity:1;stroke-width:1.23143601" d="m 1944.9772,1125.3187 c 135.5169,78.2446 263.1191,151.9218 283.5598,163.7277 21.2243,12.2593 36.7037,21.9279 36.0883,22.5432 -0.5908,0.5947 -128.1951,74.4685 -283.5602,164.1684 l -282.4846,163.092 -0.3142,-164.4919 c -0.1752,-90.4695 -0.1752,-238.0242 7e-4,-327.8968 l 0.3125,-163.40579 z" id="path3857-9-1-2-7-9-3-6" inkscape:connector-curvature="0"/>
<path style="fill:#f89101;fill-opacity:1;stroke-width:1.23143601" d="m 1944.9768,840.79185 c 135.5173,-78.24309 263.1191,-151.92227 283.5602,-163.72676 21.2247,-12.259 36.7037,-21.92755 36.0884,-22.54355 -0.5922,-0.59458 -128.1947,-74.46781 -283.5602,-164.16883 l -282.4849,-163.09181 -0.3141,164.49223 c -0.1755,90.46982 -0.1755,238.02296 -5e-4,327.89718 l 0.3138,163.4052 z" id="path3857-9-1-2-7-9-0" inkscape:connector-curvature="0"/>
<path style="fill:#ed4f01;fill-opacity:1;stroke-width:1.23143601" d="m 1378.9301,1169.3267 c 135.5193,-78.2448 263.122,-151.9218 283.562,-163.7288 21.2247,-12.25839 36.7032,-21.92719 36.0874,-22.54239 -0.5915,-0.5913 -128.1937,-74.4682 -283.5602,-164.1695 L 1132.534,655.79506 1132.2218,820.286 c -0.1754,90.47155 -0.1754,238.0244 -3e-4,327.8979 l 0.3131,163.4052 z" id="path3857-9-1-2-7-9-6" inkscape:connector-curvature="0"/>
<path style="fill:#f23700;fill-opacity:1;stroke-width:1.23143601" d="m 886.13866,1169.3258 c -135.51794,-78.2434 -263.11994,-151.9221 -283.56021,-163.7266 -21.22477,-12.26039 -36.70259,-21.92809 -36.08949,-22.54369 0.59227,-0.5931 128.19603,-74.46849 283.5624,-164.16835 l 282.48264,-163.0921 0.3143,164.49094 c 0.1753,90.47097 0.1753,238.024 2e-4,327.8975 l -0.3139,163.4056 z" id="path3857-9-1-2-7-9-6-2" inkscape:connector-curvature="0"/>
<path style="fill:#f23700;fill-opacity:1;stroke-width:1.23143601" d="m 1452.1844,1496.5872 c -135.5191,-78.2444 -263.1214,-151.9214 -283.5623,-163.7279 -21.2239,-12.2587 -36.7017,-21.9272 -36.0883,-22.5417 0.5968,-0.5913 128.1964,-74.4701 283.5618,-164.1699 l 282.4839,-163.09219 0.3143,164.49169 c 0.1755,90.4698 0.1755,238.0247 3e-4,327.8981 l -0.3136,163.4047 z" id="path3857-9-1-2-7-9-6-2-6" inkscape:connector-curvature="0"/>
<path style="fill:#e80a6a;fill-opacity:1;stroke-width:1.23143601" d="M 320.09408,1496.5875 C 184.57683,1418.343 56.973495,1344.6649 36.533666,1332.8596 15.308019,1320.6002 -0.16980426,1310.9321 0.44504074,1310.3159 1.0351217,1309.7227 128.63999,1235.8487 284.00612,1146.1478 l 282.48284,-163.09229 0.31411,164.49219 c 0.17536,90.4703 0.17536,238.0247 6.6e-4,327.8965 l -0.31455,163.4068 z" id="path3857-9-1-2-7-9-6-2-1" inkscape:connector-curvature="0"/>
<path style="fill:#e80a6a;fill-opacity:1;stroke-width:1.23143601" d="M 886.13887,1825.122 C 750.62116,1746.8769 623.01783,1673.1994 602.5778,1661.3927 c -21.22347,-12.2583 -36.70282,-21.9271 -36.08862,-22.5417 0.59315,-0.5946 128.19495,-74.4687 283.56194,-164.169 l 282.48348,-163.0929 0.313,164.4917 c 0.1754,90.4709 0.1754,238.0246 9e-4,327.8972 l -0.3133,163.4064 z" id="path3857-9-1-2-7-9-6-2-1-8" inkscape:connector-curvature="0"/>
<path style="fill:#b80218;fill-opacity:1;stroke-width:1.23143601" d="M 320.09408,2152.3829 C 184.57637,2074.1382 56.973495,2000.461 36.533232,1988.6533 15.308681,1976.3954 -0.16980426,1966.7256 0.44504074,1966.1114 1.0386447,1965.52 128.63956,1891.6434 284.00547,1801.9422 l 282.48371,-163.0912 0.3141,164.4912 c 0.17537,90.4699 0.17537,238.0244 -6.5e-4,327.897 l -0.31302,163.4056 z" id="path3857-9-1-2-7-9-6-2-1-7" inkscape:connector-curvature="0"/>
<path style="fill:#a21364;fill-opacity:1;stroke-width:1.23143601" d="m 886.13804,2480.9165 c -135.51688,-78.2448 -263.11845,-151.9234 -283.55981,-163.7283 -21.22498,-12.2585 -36.70347,-21.9274 -36.08862,-22.5434 0.59206,-0.5933 128.19495,-74.4669 283.56108,-164.1682 l 282.48451,-163.0922 0.3131,164.4919 c 0.1753,90.4703 0.1753,238.0248 0,327.8975 l -0.3144,163.4047 z" id="path3857-9-1-2-7-9-6-2-1-7-9" inkscape:connector-curvature="0"/>
<path style="fill:#068eac;fill-opacity:1;stroke-width:1.23143601" d="m 1452.1843,2808.1773 c -135.5173,-78.2446 -263.1211,-151.9223 -283.5604,-163.7287 -21.2248,-12.2578 -36.7042,-21.928 -36.0889,-22.5423 0.5949,-0.5922 128.1959,-74.4679 283.5602,-164.1692 l 282.4848,-163.0921 0.3133,164.4926 c 0.1754,90.4697 0.1754,238.0231 4e-4,327.8974 l -0.3138,163.4049 z" id="path3857-9-1-2-7-9-6-2-1-7-9-2" inkscape:connector-curvature="0"/>
<path style="fill:#00b2ca;fill-opacity:1;stroke-width:1.23143601" d="m 2018.2295,2480.9161 c -135.5169,-78.2442 -263.1204,-151.9213 -283.5613,-163.7283 -21.2233,-12.2584 -36.7032,-21.9261 -36.0882,-22.5428 0.5909,-0.5911 128.1945,-74.4674 283.5628,-164.1678 l 282.4822,-163.0921 0.3143,164.4915 c 0.1753,90.4691 0.1753,238.0245 0,327.8966 l -0.3122,163.4077 z" id="path3857-9-1-2-7-9-6-2-1-7-9-2-0" inkscape:connector-curvature="0"/>
<path style="fill:#9359a0;fill-opacity:1;stroke-width:1.23143601" d="m 1452.184,2153.6562 c -135.5181,-78.246 -263.1204,-151.9232 -283.5606,-163.7281 -21.2248,-12.2592 -36.7035,-21.9287 -36.088,-22.5422 0.5917,-0.5925 128.1952,-74.4687 283.5609,-164.1706 l 282.4837,-163.0903 0.3134,164.491 c 0.1754,90.4691 0.1754,238.024 0,327.896 l -0.3134,163.4071 z" id="path3857-9-1-2-7-9-6-2-1-7-9-2-0-2" inkscape:connector-curvature="0"/>
<path style="fill:#e90213;fill-opacity:1;stroke-width:1.23143601" d="m 812.88691,1496.5875 c 135.51774,-78.2442 263.11949,-151.9224 283.56059,-163.7282 21.2232,-12.2587 36.7033,-21.9285 36.0863,-22.5417 -0.5914,-0.5939 -128.1931,-74.4697 -283.56003,-164.1691 L 566.48896,983.05551 566.17683,1147.5467 c -0.17537,90.4717 -0.17537,238.025 -4.5e-4,327.8977 l 0.3128,163.4066 z" id="path3857-9-1-2-7-9-6-3" inkscape:connector-curvature="0"/>
<path style="fill:#cb002a;fill-opacity:1;stroke-width:1.23143601" d="m 1378.931,1825.122 c 135.5186,-78.2445 263.1203,-151.9222 283.5611,-163.7291 21.2247,-12.259 36.7048,-21.9273 36.0884,-22.5429 -0.5936,-0.5926 -128.1947,-74.4675 -283.5618,-164.1677 l -282.4841,-163.0932 -0.3131,164.4923 c -0.1753,90.4707 -0.1753,238.0247 -2e-4,327.8965 l 0.3139,163.4065 z" id="path3857-9-1-2-7-9-6-3-7" inkscape:connector-curvature="0"/>
<path style="fill:#cb002a;fill-opacity:1;stroke-width:1.23143601" d="m 246.84168,1825.1215 c 135.51727,-78.2446 263.11928,-151.9217 283.56041,-163.7283 21.22323,-12.2581 36.70281,-21.9276 36.08709,-22.5422 -0.59161,-0.5914 -128.19407,-74.4689 -283.55976,-164.1694 l -282.48416226,-163.092 -0.313663,164.4922 c -0.175351,90.4701 -0.175351,238.0231 -6.51e-4,327.897 l 0.313663,163.4068 z" id="path3857-9-1-2-7-9-6-3-7-5" inkscape:connector-curvature="0"/>
<path style="fill:#00b2ca;fill-opacity:1;stroke-width:1.23143601" d="m 1944.9755,2808.1773 c 135.5178,-78.2442 263.1215,-151.9221 283.562,-163.7285 21.2235,-12.2597 36.7027,-21.9276 36.0883,-22.5416 -0.5939,-0.5928 -128.1949,-74.47 -283.5623,-164.1691 L 1698.58,2294.645 l -0.3141,164.4926 c -0.1753,90.4707 -0.1753,238.0237 0,327.8969 l 0.3128,163.4054 z" id="path3857-9-1-2-7-9-6-2-1-7-9-2-0-9" inkscape:connector-curvature="0"/>
<path style="fill:#00b2ca;fill-opacity:1;stroke-width:1.23143601" d="m 1944.976,2152.3838 c 135.5189,-78.246 263.121,-151.9235 283.5606,-163.7293 21.2248,-12.2587 36.7045,-21.9289 36.0891,-22.5423 -0.5929,-0.5948 -128.195,-74.4694 -283.5613,-164.1696 l -282.4839,-163.0926 -0.3135,164.4922 c -0.1753,90.4703 -0.1753,238.0236 -10e-5,327.8975 l 0.3131,163.4053 z" id="path3857-9-1-2-7-9-6-2-1-7-9-2-0-9-2" inkscape:connector-curvature="0"/>
<path style="fill:#068eac;fill-opacity:1;stroke-width:1.23143601" d="m 1378.9313,2480.917 c 135.5176,-78.2443 263.1204,-151.9233 283.5601,-163.7283 21.2252,-12.2586 36.7039,-21.9273 36.0886,-22.5437 -0.5915,-0.5933 -128.1944,-74.4674 -283.5615,-164.1678 l -282.4831,-163.0913 -0.3127,164.4904 c -0.1754,90.4696 -0.1754,238.0244 -4e-4,327.8982 l 0.3138,163.4045 z" id="path3857-9-1-2-7-9-6-2-1-7-9-2-2" inkscape:connector-curvature="0"/>
<path style="fill:#a21364;fill-opacity:1;stroke-width:1.23143601" d="m 812.88624,2153.6551 c 135.51748,-78.2445 263.12036,-151.9221 283.56146,-163.7273 21.2239,-12.2597 36.7021,-21.9274 36.0875,-22.5434 -0.5928,-0.5902 -128.1955,-74.4682 -283.56165,-164.1694 l -282.48262,-163.0919 -0.31455,164.4921 c -0.17535,90.4703 -0.17535,238.0241 2.2e-4,327.8966 l 0.31344,163.4073 z" id="path3857-9-1-2-7-9-6-2-1-7-9-8" inkscape:connector-curvature="0"/>
</svg>